<?xml version="1.0" encoding="UTF-8"?>
<svg width="15px" height="14px" viewBox="0 0 15 14" version="1.1" xmlns="http://www.w3.org/2000/svg" xmlns:xlink="http://www.w3.org/1999/xlink">
    <!-- Generator: Sketch 55.2 (78181) - https://sketchapp.com -->
    <title>icon_google-plus</title>
    <desc>Created with Sketch.</desc>
    <g id="Page-1" stroke="none" stroke-width="1" fill="none" fill-rule="evenodd">
        <path d="M14.8769531,5.3759625 L14.8769531,6.86017186 L12.5334647,6.86017186 L12.5334647,9.20366031 L11.0492553,9.20366031 L11.0492553,6.86017186 L8.70576687,6.86017186 L8.70576687,5.3759625 L11.0492553,5.3759625 L11.0492553,3.03247405 L12.5334647,3.03247405 L12.5334647,5.3759625 L14.8769531,5.3759625 Z M5.25224606,-8.8817842e-16 L8.84481385,-8.8817842e-16 L8.84481385,0.0781162817 C8.84481385,0.480415132 8.12380058,0.556969088 7.63088684,0.624149091 C7.46528032,0.646802812 7.13016147,0.681955139 7.03485961,0.731168396 C7.94413313,1.21548934 8.0917729,1.97946658 8.0917729,3.11840196 C8.0917729,4.41356991 7.58479823,5.0986497 7.04657705,5.579846 C6.71458285,5.87746903 6.45133098,6.11259904 6.45133098,6.42506417 C6.45133098,6.73206115 6.81144704,7.04765093 7.22780682,7.41245397 C7.90976196,8.01238701 8.84481385,8.83260797 8.84481385,10.2113603 C8.84481385,11.6385448 8.23081988,12.6595246 7.02157984,13.2461779 C6.0896526,13.6992523 5.08585838,13.7484656 4.69762046,13.7484656 C4.62340999,13.7484656 4.58044604,13.7469032 4.57341557,13.7469032 C4.57341557,13.7469032 4.54607487,13.7476844 4.49842394,13.7476844 C3.89380392,13.7476844 0.876953125,13.6078563 0.876953125,10.8605066 C0.876953125,8.16080795 4.16174277,7.95067515 5.16866164,7.95067515 L5.19444001,7.95067515 C4.61325488,7.17498047 4.73355395,6.39147417 4.73355395,6.39147417 C4.6819972,6.39459882 4.6085679,6.39772347 4.51639069,6.39772347 C4.13674556,6.39772347 3.40635833,6.33757393 2.77752226,5.93215043 C2.00963921,5.43767437 1.61983896,4.59479969 1.61983896,3.4285236 C1.61983896,0.134360004 5.21631257,0.000781162817 5.25224606,-8.8817842e-16 Z M5.12882234,8.65450285 C5.04836257,8.65450285 4.9679028,8.6576275 4.88666186,8.66231447 C4.19923858,8.71309006 3.56727787,8.97009262 3.10717297,9.38723357 C2.65331737,9.79890637 2.42131201,10.3160362 2.45412085,10.8425399 C2.52286318,11.9400737 3.7032002,12.5853141 5.13663396,12.4806383 C6.54741401,12.378306 7.48715288,11.567459 7.41841055,10.4683629 C7.35357404,9.43410334 6.4552368,8.65450285 5.12882234,8.65450285 Z M4.56638511,0.974110032 C4.46483394,0.974110032 4.36328278,0.988170963 4.26563742,1.01551166 C3.85943276,1.1303426 3.53681252,1.46936726 3.35714507,1.97243611 C3.17435297,2.48409776 3.16185436,3.01528847 3.32043042,3.62381431 C3.60555484,4.70650597 4.37578138,5.49235576 5.15225722,5.49235576 C5.25458955,5.49235576 5.35535955,5.47829483 5.4530049,5.45095413 C6.30056656,5.21191831 6.8333196,3.9159692 6.48023401,2.67626381 C6.10683818,1.36312912 5.50378049,0.974110032 4.56638511,0.974110032 Z" id="icon_google-plus" fill="#666D89"></path>
    </g>
</svg>