<?xml version="1.0" encoding="UTF-8"?>
<svg width="15px" height="12px" viewBox="0 0 15 12" version="1.1" xmlns="http://www.w3.org/2000/svg" xmlns:xlink="http://www.w3.org/1999/xlink">
    <!-- Generator: Sketch 55.2 (78181) - https://sketchapp.com -->
    <title>icon_twitter</title>
    <desc>Created with Sketch.</desc>
    <g id="Page-1" stroke="none" stroke-width="1" fill="none" fill-rule="evenodd">
        <path d="M14.5,1.71716123 C13.9848913,1.94618296 13.4309783,2.10063949 12.8504348,2.16987862 C13.4431522,1.81455253 13.898913,1.25150905 14.1134783,0.580422095 C13.5580435,0.909878617 12.9432609,1.14879166 12.2896739,1.27737862 C11.7654348,0.719661225 11.0190217,0.370422095 10.1927174,0.370422095 C8.60630435,0.370422095 7.32043478,1.65705253 7.32043478,3.2427047 C7.32043478,3.46792209 7.34554348,3.68705253 7.395,3.89705253 C5.00815217,3.77759601 2.89065217,2.63400905 1.47467391,0.896182964 C1.2273913,1.32074818 1.08586957,1.81379166 1.08586957,2.3403134 C1.08586957,3.33705253 1.5926087,4.21585688 2.36336957,4.73096557 C1.8923913,4.71650905 1.44956522,4.58716123 1.06228261,4.37183514 C1.06228261,4.38400905 1.06228261,4.39618296 1.06228261,4.40835688 C1.06228261,5.79998731 2.05217391,6.9603134 3.36619565,7.22433514 C3.125,7.28976992 2.87163043,7.32553079 2.60913043,7.32553079 C2.42423913,7.32553079 2.24467391,7.30726992 2.06891304,7.27379166 C2.4348913,8.41509601 3.49554348,9.2452047 4.7525,9.26803079 C3.76869565,10.0387917 2.53076087,10.4983569 1.18478261,10.4983569 C0.953478261,10.4983569 0.724456522,10.4846612 0.5,10.4572699 C1.77065217,11.2729221 3.28021739,11.7484656 4.90315217,11.7484656 C10.1858696,11.7484656 13.0748913,7.37118296 13.0748913,3.57596557 C13.0748913,3.45194383 13.0726087,3.32792209 13.0665217,3.20390036 C13.6280435,2.79911775 14.115,2.29390036 14.5,1.71716123 Z" id="icon_twitter" fill="#666D89" fill-rule="nonzero"></path>
    </g>
</svg>