<svg height="60" width="60" xmlns="http://www.w3.org/2000/svg"><g fill="none" fill-rule="evenodd"><path d="M46.197 26.658A2.217 2.217 0 0044.42 25.2l-8.048-1.198-3.497-7.265a2.243 2.243 0 00-2.02-1.247c-.869 0-1.651.493-2.019 1.247l-3.497 7.265-8.047 1.198a2.217 2.217 0 00-1.778 1.458 2.103 2.103 0 00.522 2.203l5.893 5.884-1.372 8.173a2.16 2.16 0 00.918 2.125c.386.261.84.396 1.285.396.376 0 .744-.087 1.082-.27l7.014-3.778 7.014 3.778c.338.183.705.27 1.082.27.444 0 .898-.135 1.284-.396a2.16 2.16 0 00.918-2.125l-1.372-8.173 5.894-5.884c.589-.58.792-1.43.521-2.203zm-8.009 6.57a2.147 2.147 0 00-.608 1.874l1.372 8.164-7.014-3.778a2.275 2.275 0 00-1.082-.27c-.368 0-.744.087-1.082.27l-7.014 3.778 1.372-8.164a2.147 2.147 0 00-.61-1.874l-5.892-5.884 8.047-1.198a2.223 2.223 0 001.681-1.227l3.498-7.255 3.497 7.255c.319.657.947 1.121 1.68 1.227l8.049 1.198z" fill="#666d89" fill-rule="nonzero"/><path d="M30.373 1.965c15.737 0 28.5 12.762 28.5 28.5s-12.763 28.5-28.5 28.5-28.5-12.762-28.5-28.5 12.762-28.5 28.5-28.5z" stroke="#666d89" stroke-width="2"/></g></svg>