<svg height="61" width="60" xmlns="http://www.w3.org/2000/svg"><g fill="none" fill-rule="evenodd"><path d="M37.856 15.263H22.398c-1.603 0-2.898 1.317-2.898 2.949v25.56c0 1.631 1.295 2.948 2.898 2.948h15.458c1.604 0 2.898-1.317 2.898-2.949v-25.56c0-1.631-1.294-2.948-2.898-2.948zm.966 28.508c0 .54-.435.983-.966.983H22.398a.978.978 0 01-.966-.983v-1.966h17.39zm0-2.949h-17.39V21.161h17.39zm0-20.644h-17.39v-1.966c0-.54.435-.983.966-.983h15.458c.531 0 .966.442.966.983zm-6.763-1.475a.483.483 0 01-.483.492h-2.898a.483.483 0 01-.483-.492c0-.275.212-.491.483-.491h2.898c.27 0 .483.216.483.491zm-.966 24.577a.489.489 0 01-.483.491h-.966a.489.489 0 01-.483-.491c0-.276.213-.492.483-.492h.966c.27 0 .483.216.483.492z" fill="#666d89" fill-rule="nonzero"/><path d="M30 1.5c15.738 0 28.5 12.986 28.5 29s-12.762 29-28.5 29-28.5-12.986-28.5-29 12.762-29 28.5-29z" stroke="#666d89" stroke-width="2"/></g></svg>