<svg height="59" width="60" xmlns="http://www.w3.org/2000/svg"><g fill="none" fill-rule="evenodd"><path d="M30.127 13.56A10.621 10.621 0 0019.5 24.185c0 3.894 3.565 8.02 4.86 11.642 1.932 5.41 1.72 8.647 5.767 8.647 4.106 0 3.826-3.218 5.768-8.618 1.304-3.633 4.86-7.806 4.86-11.67a10.621 10.621 0 00-10.628-10.628zm2.502 26.258l-4.792.599a63.719 63.719 0 01-.57-1.836c-.01-.01-.01-.019-.01-.029l5.981-.744c-.087.28-.184.58-.26.85-.126.435-.242.812-.349 1.16zm-5.651-2.193c-.184-.58-.377-1.198-.6-1.845h7.507a18.06 18.06 0 00-.338 1.024zm3.15 4.917c-.977 0-1.43-.116-1.933-1.207l4.096-.512c-.59 1.594-1.024 1.72-2.164 1.72zm4.51-8.695h-9.013c-.483-1.043-1.063-2.086-1.633-3.11-1.256-2.251-2.56-4.59-2.56-6.55 0-4.792 3.903-8.695 8.695-8.695s8.695 3.903 8.695 8.694c0 1.952-1.304 4.3-2.57 6.57-.56 1.014-1.13 2.058-1.613 3.091zm-4.51-15.457a5.801 5.801 0 00-5.797 5.796c0 .27.212.483.483.483s.483-.212.483-.483a4.832 4.832 0 014.83-4.83c.27 0 .483-.213.483-.483a.478.478 0 00-.483-.483z" fill="#666d89" fill-rule="nonzero"/><path d="M30 1c15.738 0 28.5 12.762 28.5 28.5S45.738 58 30 58 1.5 45.238 1.5 29.5 14.262 1 30 1z" stroke="#666d89" stroke-width="2"/></g></svg>