<svg height="60" width="59" xmlns="http://www.w3.org/2000/svg"><g fill="none" fill-rule="evenodd"><path d="M29.983 21.788c-5.758 0-10.627 3.101-10.627 6.763 0 .27.212.483.483.483.27 0 .483-.213.483-.483 0-3.092 4.512-5.797 9.661-5.797.27 0 .483-.212.483-.483a.478.478 0 00-.483-.483zm0-4.83c-8.54 0-15.458 5.188-15.458 11.593 0 3.99 2.686 7.506 6.773 9.593 0 .02-.01.039-.01.068 0 1.73-1.294 3.594-1.864 4.58a1.004 1.004 0 00-.068.337c0 .483.396.88.88.88.086 0 .25-.03.24-.01 3.025-.493 5.865-3.275 6.522-4.077.966.145 1.961.222 2.985.222 8.54 0 15.458-5.188 15.458-11.593s-6.918-11.593-15.458-11.593zm0 21.254c-.889 0-1.797-.068-2.705-.203a1.941 1.941 0 00-1.768.686c-.415.502-1.594 1.633-2.985 2.454.377-.86.676-1.836.695-2.83 0-.059.01-.126.01-.175 0-.734-.406-1.39-1.053-1.73-3.584-1.825-5.72-4.762-5.72-7.863 0-5.323 6.068-9.661 13.526-9.661s13.525 4.338 13.525 9.66c0 5.324-6.067 9.662-13.525 9.662z" fill="#666d89" fill-rule="nonzero"/><path d="M29.5 1.5C45.238 1.5 58 14.262 58 30S45.238 58.5 29.5 58.5 1 45.738 1 30 13.762 1.5 29.5 1.5z" stroke="#666d89" stroke-width="2"/></g></svg>