<svg height="59" width="59" xmlns="http://www.w3.org/2000/svg"><g fill="#666d89"><path d="M42.937 17.01c-1.595-1.585-3.683-2.493-5.752-2.493-1.74 0-3.345.647-4.514 1.817l-4.708 4.737c-.01.01-.029.019-.039.038-.01.01-.019.02-.019.03L17.919 31.2a3.926 3.926 0 00-.986 1.644l-2.262 8.226c-.01.02-.154.667-.154.996A3.387 3.387 0 0017.9 45.45c.377 0 1.092-.174 1.121-.184l8.198-2.155a3.906 3.906 0 001.643-.977l14.761-14.867c2.678-2.687 2.378-7.192-.686-10.256zM29.993 37.524a7.823 7.823 0 00-.686-2.542l9.135-9.145c.56 1.77.27 3.616-.957 4.843 0 .01-.01.01-.02.02l.01.01-7.472 7.53c.01-.242.019-.474-.01-.716zm-1.18-3.422c-.357-.599-.763-1.17-1.275-1.672-.59-.59-1.267-1.054-1.972-1.44l9.212-9.222a6.983 6.983 0 012.03 1.392 6.695 6.695 0 011.237 1.71zm-4.156-3.576a7.96 7.96 0 00-2.774-.58l7.443-7.502c1.14-1.111 2.803-1.43 4.437-1.024zm-6.11 12.866a4.704 4.704 0 01-.657.126 1.459 1.459 0 01-1.44-1.45c.01-.165.077-.445.097-.542l1.015-3.692c1.111-.03 2.3.406 3.228 1.343.957.948 1.402 2.156 1.354 3.277zm4.544-1.189c-.02-1.295-.551-2.649-1.614-3.712-1.006-1.005-2.32-1.595-3.635-1.643l.957-3.49c.068-.232.213-.454.377-.657 1.943-1.392 4.92-.977 6.999 1.092 2.184 2.194 2.523 5.404.84 7.318-.115.058-.222.116-.347.154zm19.16-16.308l-1.625 1.644c0-.223.03-.426 0-.648-.164-1.875-1.034-3.683-2.455-5.094-1.576-1.576-3.664-2.485-5.732-2.485l1.604-1.614c.803-.802 1.914-1.247 3.142-1.247 1.556 0 3.151.706 4.379 1.933 1.16 1.15 1.846 2.581 1.943 4.022.087 1.353-.358 2.59-1.257 3.49z"/><path d="M29.5 0C45.79 0 59 13.21 59 29.5S45.79 59 29.5 59 0 45.79 0 29.5 13.21 0 29.5 0zm0 1.967c-15.204 0-27.533 12.33-27.533 27.533S14.297 57.033 29.5 57.033 57.033 44.703 57.033 29.5 44.703 1.967 29.5 1.967z"/></g></svg>