<svg height="59" width="59" xmlns="http://www.w3.org/2000/svg"><g fill="none" fill-rule="evenodd"><path d="M42.726 19.153c-3.507-3.468-9.11-3.536-12.743-.28-3.632-3.256-9.236-3.188-12.743.28a9.085 9.085 0 000 12.946l10.676 10.56a2.945 2.945 0 004.135 0l10.675-10.56a9.085 9.085 0 000-12.946zm-1.372 11.584L30.67 41.297a.974.974 0 01-1.372 0l-10.675-10.56a7.161 7.161 0 010-10.222c2.743-2.714 7.159-2.811 10.047-.212l1.314 1.178 1.314-1.178c2.889-2.6 7.304-2.502 10.057.212a7.178 7.178 0 010 10.222zm-17.892-9.42a4.1 4.1 0 00-4.106 4.096c0 .27.222.483.483.483.27 0 .483-.212.483-.483 0-1.729 1.41-3.13 3.14-3.13.27 0 .483-.222.483-.483a.478.478 0 00-.483-.483z" fill="#666d89" fill-rule="nonzero"/><path d="M29.5 1C45.238 1 58 13.762 58 29.5S45.238 58 29.5 58 1 45.238 1 29.5 13.762 1 29.5 1z" stroke="#666d89" stroke-width="2"/></g></svg>