<?xml version="1.0" encoding="UTF-8"?>
<svg width="13px" height="10px" viewBox="0 0 13 10" version="1.1" xmlns="http://www.w3.org/2000/svg" xmlns:xlink="http://www.w3.org/1999/xlink">
    <!-- Generator: Sketch 55.2 (78181) - https://sketchapp.com -->
    <title>icon-email</title>
    <desc>Created with Sketch.</desc>
    <g id="Page-1" stroke="none" stroke-width="1" fill="none" fill-rule="evenodd">
        <path d="M12.7204977,3.03740906 C12.3196645,3.24613123 7.39988778,5.81868623 7.15433228,5.94651954 C6.90877678,6.07507506 6.73688793,6.09168617 6.50000025,6.09168617 C6.26238803,6.09168617 6.0912214,6.07507506 5.8456659,5.94651954 C5.6001104,5.81868623 0.680333689,3.24613123 0.279500442,3.03740906 C-0.00216616319,2.89007575 2.51459657e-07,3.06268683 2.51459657e-07,3.19557569 L2.51459657e-07,8.49379676 C2.51459657e-07,8.7964078 0.403000415,9.18640772 0.716444792,9.18640772 L12.2835534,9.18640772 C12.5969978,9.18640772 13.0000003,8.7964078 13.0000003,8.49379676 L13.0000003,3.19557569 C13.0000003,3.06268683 13.0028866,2.89007575 12.7204977,3.03740906 Z M0.42900041,1.59296493 C0.781444778,1.78218711 5.66366594,4.40457543 5.8456659,4.5020754 C6.02694364,4.60029761 6.26238803,4.64724204 6.49999909,4.64724204 C6.73688793,4.64724204 6.97233232,4.60029761 7.15433228,4.5020754 C7.33633224,4.40457543 12.2185534,1.78218711 12.5709978,1.59296493 C12.9234421,1.40302052 13.257831,0.808631763 12.6092755,0.808631763 L0.390000418,0.808631763 C-0.257110552,0.808631763 0.0758338199,1.40302052 0.42900041,1.59296493 Z" id="icon-email" fill="#F0D8D9" fill-rule="nonzero"></path>
    </g>
</svg>